<svg xmlns="http://www.w3.org/2000/svg" viewBox="0 0 50 54.7">
    <g fill="#FFF">
        <path d="M48 54.7h-7.3l-.1-.1c-1.3-.5-1.9-1.3-1.9-2.8v-5.7h-1.8c-.5 0-.7.2-.9.6-.5 1.2-1.1 2.4-1.7 3.6-.4.7-1 1-1.8 1H17.3c-.9 0-1.6-.4-2.1-1.2-.2-.3-.4-.7-.6-1-.4-.9-.7-1.7-1-2.6-.1-.1-.2-.3-.3-.3h-2.2v5.6c0 .3 0 .5-.1.8-.2 1.2-1 1.8-2 2.1H1.7c-1-.3-1.7-1-2-2.1V34.7C.4 33 1 32.6 2.8 32.6h5.5c1.6 0 2.7 1.1 2.7 2.8v4h1.6v-8.5H4c-.8 0-1-.3-1-1.1V28c.1-2.4 1-4 3-4.8.3-.1.4-.3.4-.7V12H4.1c-.6 0-.9-.3-.9-1V7.9c0-.7.3-1 .9-1h3.2c.3 0 .7.1 1 .2 1.7.5 2.9 2.2 2.9 4.1v11h1.6V4.5c0-2.2 1.3-3.9 3.3-4.4.1 0 .2-.1.2-.1h17.2s0 .1.1.1C35.9.8 37 2.3 37 4.9v17.4h.6c1.6 0 3.1 0 4.7.1 2.3.2 4 1.7 4.3 3.9.2 1.1.1 2.2.1 3.3 0 .9-.2 1.2-1.1 1.2h-8.5v8.5h1.6v-4.2c0-1.4 1.1-2.5 2.4-2.6h6.5c1.3 0 2.4 1.2 2.4 2.6v17c0 1.1-.6 2-1.6 2.4-.2 0-.3.1-.4.2zM11.3 44.4h2.2c1.3 0 1.3 0 1.8 1.2.1.4.3.7.4 1.1.3.8.7 1.5 1 2.3.2.4.4.5.9.5h14.7c.7 0 1-.2 1.3-.8.5-1.1.9-2.2 1.4-3.4.3-.7.6-1 1.4-1 .8.1 1.6 0 2.4 0v-3.4h-2.1c-.8 0-1.1-.3-1.1-1.1V30c0-.8.3-1.1 1-1.1h8.7c0-.8 0-1.6-.1-2.3-.2-1.3-.8-2.1-2-2.5-.6-.2-1.3-.3-1.9-.3h-4.5c-.9 0-1.2-.2-1.2-1.2V4.4c0-1.6-1.1-2.8-2.5-2.8H17.2c-1.5 0-2.6 1.1-2.6 2.7v18.4c0 .7-.3 1-.9 1.1h-3.1c-.5 0-.8-.3-.8-.9V11c-.1-1-.8-2.1-1.6-2.2-1.1-.2-2.2-.2-3.3-.3v1.8h2.3c.6 0 .9.3.9 1v12.1c0 .5-.2.8-.6 1-.5.2-1.1.4-1.5.7-.4.3-.8.8-.9 1.2-.2.8-.2 1.7-.2 2.7h8.6c.9 0 1.1.3 1.1 1.2v9.6c0 .9-.3 1.2-1.1 1.2h-2.1c-.1 1.2-.1 2.2-.1 3.4zM5.7 34.2h-3c-.7 0-1 .3-1 1.1v.6c0 .3.1.5.3.7 1.1.8 2.2 1.5 3.3 2.3.3.2.5.2.8 0 1-.7 1.9-1.4 2.9-2 .6-.4.8-.9.8-1.6-.1-.7-.3-1.1-1-1.1H5.7zm38.7 0h-2.5c-1.5 0-1.6.2-1.6 1.7 0 .3.1.5.3.7 1.1.8 2.3 1.5 3.4 2.3.3.2.4.2.7 0 1-.7 1.9-1.4 2.9-2 .6-.4.8-.9.8-1.6-.1-.7-.3-1.1-1-1.1h-3zm4 9.3c-1.2.8-2.3 1.6-3.4 2.4-.4.3-.8.3-1.2 0-.6-.4-1.2-.8-1.8-1.3-.5-.4-1-.7-1.6-1.1v2.9c0 .1.1.3.2.4 1.2.8 2.3 1.7 3.5 2.5.1.1.4.1.5 0 1.2-.8 2.4-1.6 3.5-2.5.1-.1.2-.3.2-.4.1-1 .1-1.9.1-2.9zm-38.7 0c-1.2.8-2.3 1.6-3.3 2.4-.5.4-.9.4-1.4 0-.6-.5-1.3-.9-1.9-1.4-.4-.3-.9-.6-1.4-1v2.9c0 .1.1.3.3.3 1.2.8 2.3 1.6 3.5 2.4.1.1.4.1.5 0 1.2-.8 2.4-1.6 3.5-2.5.1-.1.2-.3.2-.5v-2.6zm30.6-5.1v2.9c0 .1.1.3.2.4 1.2.8 2.3 1.7 3.5 2.5.1.1.4.1.5 0 1.2-.8 2.4-1.6 3.5-2.5.1-.1.2-.2.2-.3v-2.9c-1.2.8-2.3 1.6-3.4 2.4-.5.3-.8.3-1.3 0-.9-1-2-1.7-3.2-2.5zm-30.6-.1c-1.2.8-2.2 1.5-3.3 2.3-.6.4-1 .4-1.5 0-.7-.6-1.5-1.1-2.3-1.6-.3-.2-.6-.4-1-.7v2.8c0 .2.1.3.3.4 1.1.9 2.3 1.7 3.5 2.5.1.1.4.1.6 0 1.2-.8 2.4-1.6 3.5-2.5.1-.1.2-.2.2-.4v-2.8zM1.6 48.6V52c0 .6.3.9.9 1h6.3c.5 0 .8-.3.9-.8v-3.4h-.1c-.9.6-1.7 1.2-2.6 1.8-1.4 1-1.2 1-2.6 0-.9-.7-1.8-1.3-2.8-2zm46.8 0c-1.2.8-2.3 1.6-3.4 2.4-.4.3-.8.3-1.2 0-.7-.5-1.5-1-2.2-1.6-.4-.3-.7-.5-1.2-.8v3.5c0 .5.4.9.9.9h6.2c.5 0 .9-.4.9-.9v-3.5z"/>
        <path d="M25 6.8h7.8c.8 0 1.1.3 1.1 1.1V21c0 .8-.3 1.1-1.1 1.1H17.2c-.8 0-1.1-.3-1.1-1.1V7.9c0-.9.2-1.2 1.1-1.2 2.6.1 5.2.1 7.8.1zm-7.2 1.8v11.9h14.4V8.6H17.8zm8 21.3c0-2.4 1.8-4.3 4-4.3 2.3 0 4.1 1.9 4.1 4.3 0 2.3-1.8 4.2-4 4.2-2.3.1-4.1-1.8-4.1-4.2zm4-2.6c-1.3 0-2.4 1.2-2.4 2.6 0 1.4 1.1 2.6 2.4 2.6 1.3 0 2.4-1.2 2.4-2.6 0-1.4-1.1-2.6-2.4-2.6zm-9.6-1.7c2.2 0 4 1.9 4 4.3 0 2.3-1.8 4.2-4 4.2s-4-1.9-4-4.2c-.1-2.4 1.7-4.3 4-4.3zm2.4 4.3c0-1.4-1.1-2.6-2.5-2.5-1.3 0-2.4 1.2-2.4 2.6 0 1.4 1.1 2.6 2.5 2.5 1.3-.1 2.4-1.2 2.4-2.6zm2.4 7.7h6.3c.6 0 .9.3 1 .8 0 .5-.4.9-.9.9H18.8c-.5 0-.8-.2-.9-.7-.1-.4.1-.8.5-1 .2-.1.4-.1.6-.1 1.9.1 3.9.1 6 .1zm0 6.8h6.2c.7 0 1 .3 1 .9 0 .5-.4.8-1 .8H18.8c-.6 0-1-.3-1-.9 0-.5.4-.9 1-.9 2.1.1 4.1.1 6.2.1zm0-3.4h6.3c.4 0 .8.1.9.6.2.6-.2 1.1-.9 1.1H18.8c-.3 0-.7-.1-.8-.3-.2-.2-.2-.7-.1-.9.2-.2.5-.5.8-.5H25z"/>
    </g>
</svg>
