<svg xmlns="http://www.w3.org/2000/svg" viewBox="0 0 51.8 61">
    <g fill="#FFF">
        <path d="M4.8 9.6v15.2c0 .5.1.7.5.8 1.5.6 2.5 2.2 2.5 4 0 1.8-1 3.4-2.6 4-.2.1-.3.2-.5.3l.4.4c1 .7 1.5 2.1 1.1 3.3-.4 1.3-1.5 2.1-2.7 1.9-1.2-.2-2.1-1.2-2.2-2.5-.1-.7.2-1.1.7-1.2.5-.1.8.3.9.9.1.6.4.9.9.9.4 0 .8-.4.8-.9s-.3-.8-.9-1c-.6-.1-.9-.4-.8-1.2 0-.6-.1-1-.7-1.2-1.5-.6-2.4-2.3-2.4-4 0-1.7 1-3.3 2.5-3.9.4-.2.5-.4.5-.9V7.9c0-.4-.1-.7-.4-.9-.3-.3-.6-.6-.9-1-.8-1.1-.9-3.1.1-4.5C2.6 0 4.4-.4 5.8.5c8 4.6 15.9 9.1 23.9 13.7 1.6.9 3.2 1.8 4.9 2.8.5-1.1 1.4-1.1 2.4-1.1h1.6c1 0 1.7.8 1.8 1.9V21l.1.1c1.4.1 1.4.1 1.8 1.6 1.4 5.3 2.8 10.6 4.2 15.8.2.8.3 1.7.3 2.5v3.7c0 .4.1.6.5.8 2.9 1.3 4.5 3.8 4.6 7.2.2 4.5-3.1 8.3-7.3 8.3H16.4c-3.6 0-6.6-2.7-7.3-6.4-.7-3.9 1.1-7.6 4.6-9.1.3-.1.4-.3.4-.6V40c0-.2 0-.4.1-.6l3.9-14.7c.1-.3.1-.6-.1-.8-4.2-4.6-8.4-9.3-12.6-13.9-.4-.2-.5-.3-.6-.4zm25.5 49.5h14.3c3.1 0 5.5-2.8 5.5-6.1 0-3.5-2.4-6.2-5.5-6.2H15.9c-.3 0-.6 0-.9.1-2.9.7-4.8 3.5-4.5 6.8.3 3 2.7 5.4 5.6 5.4h14.2zM20 22.9c-1.4 5.3-2.8 10.5-4.1 15.8h28.7c0-.2 0-.3-.1-.4-1.3-5-2.6-9.9-3.9-14.9-.1-.4-.3-.5-.7-.5H20zm24.9 17.8H15.6v4.2h29.3v-4.2zM34.4 21.1v-1.6c0-.4-.1-.6-.4-.7-7.7-4.4-15.3-8.8-23-13.2-.1-.1-.2-.1-.4-.2.1.2.1.2.2.3 4.6 5 9.1 10.1 13.7 15.1.2.2.5.3.8.3h7.9c.3-.1.7 0 1.2 0zM22.1 21v-.1l-3.3-3.6L5.6 2.6c-.3-.3-.8-.6-1.2-.7-.7-.1-1.4.3-1.6 1-.4.7-.3 1.5.3 2.2.7.8 1.4 1.5 2.1 2.3 4.2 4.6 8.4 9.2 12.6 13.9.2.2.4.6.6.8.1 0 .1 0 .2-.1.2-.9.8-1 1.4-1 .7.1 1.4 0 2.1 0zm-16 8.6c0-1.3-.9-2.4-2.1-2.4-1.2 0-2.2 1-2.2 2.4 0 1.3 1 2.4 2.2 2.4 1.1 0 2.1-1.1 2.1-2.4zm30-8.6h2.4v-2.8c0-.1-.2-.3-.3-.3H36c.1 1 .1 2 .1 3.1z"/>
        <path d="M30.3 57.4c-2.3 0-4.1-2-4-4.6 0-2.4 1.9-4.4 4.1-4.4 2.3 0 4.1 2.1 4.1 4.6-.2 2.5-2 4.4-4.2 4.4zm-3.2-4.5c0 2 1.4 3.6 3.2 3.6 1.8 0 3.2-1.6 3.2-3.5 0-2-1.5-3.6-3.2-3.6-1.8-.1-3.2 1.6-3.2 3.5zm12.3 0c0-2.5 1.8-4.5 4-4.5s4.1 2 4.1 4.5c0 2.4-1.8 4.5-4 4.5-2.3 0-4.1-1.9-4.1-4.5zm4 3.6c1.8 0 3.3-1.6 3.3-3.6 0-1.9-1.5-3.6-3.2-3.6-1.8 0-3.3 1.6-3.3 3.5 0 2.1 1.4 3.7 3.2 3.7zm-26.3.9c-2.3 0-4.1-2-4.1-4.5s1.9-4.5 4.1-4.5c2.2 0 4.1 2.1 4 4.6.1 2.4-1.8 4.4-4 4.4zm0-.9c1.8 0 3.3-1.6 3.3-3.6 0-1.9-1.5-3.6-3.2-3.6-1.8 0-3.3 1.6-3.3 3.6-.1 2 1.4 3.6 3.2 3.6zm7.3-20h-4.6c-.6 0-.7-.2-.6-.8.9-3.4 1.8-6.7 2.6-10.1.1-.4.3-.5.6-.5h6.7c.4 0 .6.2.6.6v10.2c0 .5-.2.6-.6.6h-4.7zm-4.3-.9h8.7v-9.5h-5c-1.2 0-1.2 0-1.6 1.3-.7 2.7-1.4 5.4-2.1 8.2zm16.1.9h-4.5c-.5 0-.7-.2-.7-.8v-9.8c0-.6.2-.7.7-.7h6.4c.4 0 .6.2.8.7.8 3.3 1.7 6.6 2.5 9.8.2.7.1.8-.6.8h-4.6zm4.2-.9v-.2c-.8-3-1.5-6-2.3-9-.1-.4-.3-.4-.6-.4h-5.7v9.5c3 .1 5.8.1 8.6.1zM4.4 4.9c-.5 0-.9-.4-.9-1 0-.5.4-.9 1-.9.5 0 .9.5.8 1 0 .6-.3.9-.9.9z"/>
    </g>
</svg>
