<svg xmlns="http://www.w3.org/2000/svg" viewBox="0 0 25.7 30.4">
    <path fill="#B4B4B4" d="M4.7 3.2V1c0-.7.4-1 .8-1 .5 0 .8.4.8 1v2.2h12.6V.9c.1-.6.4-.9.9-.9.4 0 .8.3.8.8v2.4h1.1c2.4 0 4.1 1.7 4.1 4.1v19.1c0 1.9-1.2 3.4-2.9 3.9-.3.1-.7.1-1.1.1H4.1c-2.3 0-4-1.7-4-4C0 20 0 13.7 0 7.3c0-2.4 1.7-4.1 4.1-4.1h.6zM1.6 9.9h22.5V7.1c0-1-.7-1.9-1.6-2.2-.6-.2-1.3-.1-1.9-.2 0 .6-.1 1 .3 1.4.6.6.5 1.6-.1 2.2-.6.6-1.6.6-2.2 0-.6-.7-.6-1.7 0-2.3.5-.4.4-.8.4-1.3H6.3v.7c0 .2.1.4.2.5.7.6.7 1.6.1 2.3-.6.6-1.6.6-2.2 0-.6-.7-.6-1.7.1-2.3.1-.1.2-.3.2-.4 0-.9.2-.8-.8-.8-1.2 0-2.2.8-2.3 1.9-.1 1.1 0 2.2 0 3.3zm4.3 18.9h3.9v-3.9H5.9v3.9zm4.8 0h3.9v-3.9h-3.9v3.9zm8.7 0v-3.9h-3.9v3.9h3.9zm-4.8-18.1h-3.9v3.9h3.9v-3.9zm.8 3.9h3.9v-3.9h-3.9v3.9zm8.7 0v-3.9h-3.9v3.9h3.9zM5.9 19.3h3.9v-3.9H5.9v3.9zm4.8 0h3.9v-3.9h-3.9v3.9zm13.4.1v-3.9h-3.9v3.9h3.9zm-18.2.8v3.9h3.9v-3.9H5.9zm4.8 3.9h3.9v-3.9h-3.9v3.9zm8.7-3.9h-3.9v3.9h3.9v-3.9zm.8 3.9h3.9v-3.9h-3.9v3.9zm3.9.8h-3.9v3.9c.7 0 1.4.1 2.1 0 .9-.1 1.8-1 1.8-1.9v-2zm-19-4.7H1.6v3.9h3.5v-3.9zm-3.5-5.6h3.5v-3.9H1.6v3.9zm0 .8v3.9h3.5v-3.9H1.6zm3.5 13.5v-3.7c0-.3-.2-.2-.3-.2H1.6c0 .7-.1 1.3 0 1.9.1 1.2 1 2 2.2 2.1.4-.1.8-.1 1.3-.1zm4.8-14.3v-3.9H6v3.9h3.9zm5.5 4.7h3.9v-3.9h-3.9v3.9z"/>
    <path fill="#B4B4B4" d="M9.6 13.7l-.6.6c-.3-.4-.7-.7-1-1.1-.4.4-.7.8-1.1 1.2-.2-.3-.4-.5-.6-.7.3-.3.7-.6 1.1-1-.4-.4-.8-.8-1.2-1.1.2-.2.4-.4.7-.6.3.4.7.8 1 1.2.4-.4.7-.8 1.1-1.2.2.2.3.4.5.7-.3.3-.7.6-1.1 1 .4.3.8.7 1.2 1zm7.3 3.7c-.5-.4-.9-.7-1.3-1.1l.6-.6c.3.4.7.8 1 1.2.4-.5.8-.8 1.1-1.2l.6.6c-.4.3-.8.7-1.2 1 .5.4.8.7 1.3 1.1-.3.3-.4.4-.7.6-.3-.4-.7-.7-1-1.2-.4.5-.7.8-1.1 1.2-.2-.3-.4-.5-.6-.7.5-.2.9-.5 1.3-.9z"/>
</svg>
