<svg xmlns="http://www.w3.org/2000/svg" viewBox="0 0 20.1 21" width="21" height="21">
    <path fill="#4D4D4D" d="M20.1 9.2c-.1.4-.1.9-.2 1.3-.3 1.7-.9 3.2-2.2 4.3-1.1 1-2.5 1.5-4 1.4-1.1 0-1.8-.7-2-1.8l-.2.2c-.7.8-1.6 1.4-2.7 1.6-2.1.3-4-.8-4.4-3-.5-2.7.1-5.2 2-7.2 1-1.1 2.3-1.6 3.7-1.6 1.1 0 2.1.4 2.9 1.2l.1.1c.1-.3.1-.6.2-.9 0-.1.1-.2.2-.2h1.8L15 5.8c-.5 2.4-1 4.7-1.6 7.1 0 .2-.1.5-.1.7 0 .5.3.7.7.7.8 0 1.6-.3 2.2-.9.9-.7 1.3-1.7 1.6-2.8.4-1.6.5-3.2-.1-4.7-.8-2-2.3-3.3-4.3-4C9 .7 3.8 2.8 2.2 8.2c-.6 2-.6 4.1.1 6.1.8 2.2 2.4 3.6 4.6 4.4 1.4.5 2.9.7 4.4.6 1.5 0 2.9-.2 4.2-.8h.1c.2.5.4 1 .6 1.6-.6.2-1.1.4-1.6.5-1.6.4-3.2.5-4.8.4-1.5-.1-2.9-.4-4.3-1-3-1.3-4.8-3.6-5.3-6.8-.1-.4-.1-.8-.2-1.2v-1.7C.1 8.8.5 7.4 1.1 6 2.8 2.6 5.5.6 9.3.1c.4 0 .8-.1 1.3-.1h.9c1.3.1 2.5.3 3.7.8 2.6 1.1 4.2 3 4.8 5.8.1.4.1.8.2 1.2-.1.5-.1 1-.1 1.4zM6.3 11.7c.1.5.1.9.2 1.4.2.8.7 1.3 1.5 1.4.8.1 1.6-.1 2.2-.6.7-.6 1.2-1.3 1.4-2.1.4-1.4.6-2.8 1-4.1 0-.1 0-.1-.1-.2-.9-.9-1.9-1.3-3.1-1.1-.7.1-1.2.6-1.7 1.2-.9 1.2-1.3 2.6-1.4 4.1z"/>
</svg>
