<svg xmlns="http://www.w3.org/2000/svg" viewBox="0 0 46.3 50">
    <path d="M22.2 43.3h-6.9c-2 0-3.6-1.2-3.6-2.9-.1-2.5 0-5 0-7.4 0-.5.5-.9 1.1-1 .6 0 1.1.3 1.2.8v7c0 1 .4 1.4 1.5 1.4H22c1.1 0 1 .1 1-.9V10.6c0-2.1 1.2-3.4 3-4 4-1.3 8.1-2.8 12.1-4.2.2-.1.3-.1.5-.2v-.1H15.9c-1.4 0-1.8.3-1.8 1.6v6.4c0 .6-.2 1-.8 1.2-.8.3-1.5-.3-1.6-1.1 0-2.2.1-4.4 0-6.6-.1-2 1.5-3.6 3.9-3.6 9.8.1 19.5 0 29.3 0 1.2 0 1.5.3 1.5 1.4v40.5c0 .9-.1 1.1-1.1 1.4-4.3 1.5-8.7 3-13 4.6-1.8.6-3.6 1.3-5.5 1.9-1.7.6-3.3-.2-3.7-1.7-.1-.4-.1-.7-.1-1.1v-3.7h-.8zM41.1 3.6c-4.8 1.7-9.6 3.4-14.4 5-1 .4-1.3.8-1.3 1.7v36.4c0 1.2 0 1.2 1.3.8 5.6-2 11.3-3.9 16.9-5.9.4-.1.5-.3.5-.8V2.5c-1.1.5-2.1.8-3 1.1z"/>
    <path d="M14.9 20.6c-.4 0-.7.1-1 .1H1.4c-.9 0-1.3.3-1.4.9-.1.7.4 1.1 1.3 1.1h13.6c-.2.2-.4.4-.5.6-1.5 1.4-3 2.7-4.5 4.1-.3.3-.6.6-.5 1.1.2.8 1.2 1 1.9.4.9-.8 1.8-1.6 2.6-2.4 1.4-1.2 2.7-2.5 4.1-3.7.6-.6.8-1.3.3-1.9l-.3-.3c-2.2-2-4.5-4.1-6.7-6.1-.7-.6-1.7-.4-1.9.4-.2.5.1.8.4 1.1 1.5 1.4 3 2.7 4.5 4.1.2.1.3.2.6.5z"/>
</svg>
