<svg xmlns="http://www.w3.org/2000/svg" viewBox="-292.7 413.9 8.5 14" width="9" height="15">
    <path fill="#9B9B9B" d="M-289 427.9c-.6-.2-.7-.4-.7-.9v-1c0-.1 0-.1.2-.1h.6c.4 0 .6-.2.6-.5v-2.2c0-.2-.2-.3-.4-.3h-.7c-.1 0-.1 0-.1-.1v-4.1c-.1 0-.1.1-.1.2-.4.3-.4.6-.4.9-.1.8-.2 1.7-.2 2.4 0 .1 0 .1-.1.1h-.7c-.1 0-.1 0-.1-.1v-2.5c0-.6.1-1.3.4-1.9.1-.3.4-.6.9-.7.2-.1.4-.2.7-.4.1.4.4.7.7 1 .1.1.2.1.3.2.1 0 .1.1.1 0 0-.2 0-.4.1-.6 0-.1 0-.2.2-.1.1 0 .2 0 .2.1 0 .2.1.4.1.6-.1.1-.1.1 0 0 .4-.2.8-.6 1.1-1.3.2.2.5.3.7.4.4.2.6.4.7.7.2.4.3.9.3 1.4.1 1 0 2 .1 3 0 .1 0 .1-.2.1h-.6c-.1 0-.1 0-.1-.1 0-.6 0-1.4-.1-2-.1-.4-.1-.8-.2-1.4 0-.1 0-.2-.1-.2v8.1c0 .5-.2.8-.8.9h-.5c-.2-.1-.5-.1-.7-.3h-.1c-.2.2-.4.2-.7.3h-.4v.4z"/>
    <path fill="#9B9B9B" d="M-289.1 425.6c.3 0 .4-.1.4-.3v-1.8c0-.2-.2-.3-.4-.3h-.8c-.1 0-.1 0-.1-.1-.1-.4-.3-.6-.7-.6-.3 0-.6.2-.7.5 0 .1-.1.1-.1.1h-.7c-.2 0-.4.1-.4.3v1.8c0 .2.1.4.4.4h3.1"/>
    <path fill="#9B9B9B" d="M-291 423.1c-.1 0-.2-.1 0 0 0-.2.1-.3.3-.3.2 0 .3.1.4.2 0 .1 0 .1-.1.1h-.6m4.2-8.6c0-.3-.2-.5-.6-.6h-.7c-.3.1-.5.2-.5.5v.8c-.1 0-.1.1-.1.2s0 .1.1.2.1.2.2.4c.1.1.1.2.3.3.2.2.5.2.7.1.2-.1.4-.3.4-.5 0-.1.1-.2.2-.3.1-.1.1-.2.1-.3 0-.1-.1-.1-.1-.1v-.1c0-.2.1-.3 0-.5v-.1m-1.2 2.3c0 .1.1.2.1.3h.2c.2 0 .3-.1.3-.3 0-.1-.2-.1-.3-.1-.1 0-.3 0-.3.1"/>
</svg>
