<svg xmlns="http://www.w3.org/2000/svg" viewBox="0 0 50 38.1" width="50" height="39">
    <path d="M0 15.9c.1-.4.1-.9.2-1.3.4-2 1.7-3.1 3.4-2.9H4C5.6 6 8.7 2.2 14.1 2.2c5.4 0 8.4 3.8 10 9.5.4 0 .8-.1 1.2 0 1.4.3 2.4 1.5 2.6 3.4.1.8.1 1.5.1 2.3v14.7c0 1.1-.2 1.3-1.1 1.3H25c-.2 1.2-.3 2.3-.5 3.5-.1.7-.3.9-.9.9h-1.3c-.6 0-.9-.2-1-1-.1-1-.3-1.9-.4-2.9 0-.1-.1-.3-.1-.5H6.9c-.2 1.1-.3 2.2-.5 3.3-.1.8-.3 1-1 1H4.2c-.6 0-.8-.2-1-.9-.2-1.1-.3-2.2-.5-3.4H.9c-.6 0-.9-.2-1.1-.8C0 27 0 21.4 0 15.9zm21.6 3.2v-2.7c0-1.3.3-2.6 1-3.6.1-.2.1-.5.1-.7-.2-.8-.4-1.5-.7-2.2-2.2-5.3-6.3-6.8-10.4-5.5-2.9.9-5.7 4.6-6.1 8 0 .1 0 .3.1.4.8 1.2 1 2.6 1 4v2.3h15zm4.9 12.5V16.1c0-.5-.1-1-.2-1.5-.2-.8-.8-1.2-1.5-1.3-.7 0-1.3.4-1.6 1.2-.2.5-.2 1.1-.2 1.7v10.1c0 1.2-.2 1.4-1.2 1.4H6.1c-1 0-1.1-.2-1.1-1.3v-9.9c0-.7-.1-1.4-.3-2-.2-.7-.8-1.1-1.4-1.1-.7 0-1.2.3-1.4 1.1-.2.5-.3 1.1-.3 1.7v15.4h24.9zm-5-5.7v-5h-15v5h15zm.9 7.5c.1.8.2 1.6.3 2.3 0 .1.1.2.2.3.1-.1.2-.2.2-.3.1-.8.2-1.5.3-2.3h-1zm-16.9 0H4.4c.1.8.2 1.6.4 2.4 0 .1.1.2.2.2.1-.1.2-.2.2-.3.1-.7.2-1.5.3-2.3zM46.1 0c.3.2.5.6.5 1.1.3 4.5.7 9 1 13.5.1.9-.2 1.2-.9 1.2h-4.8V23h2.8c.7 0 1.1.3 1.1.8 0 .6-.4.9-1.1.9h-7.4c-.4-.1-.7-.4-.7-.9s.3-.8.8-.8h3.1v-7.2h-4.8c-.8 0-1-.3-.9-1.2.3-4 .6-8 1-12 0-.5.1-1 .1-1.5s.2-.8.5-1.1h9.7zm-8.9 1.7l-.6 7.5h9.2l-.6-7.5h-8zm-1 12.3h9.9c-.1-.7-.1-1.4-.2-2.1h-9.6c0 .7 0 1.4-.1 2.1zm-.6 24.1c-.7-.6-.7-1-.1-1.7 1.4-1.6 2.8-3.3 4.2-4.9l.5-.5c-.5-.6-1-1.1-1.4-1.6-.7-.8-1.3-1.6-2-2.3-.2-.2-.4-.3-.6-.3h-2.9c-.6 0-.9-.3-.9-.8s.3-.9.9-.9h15.9c.6 0 1 .5.8 1.1-.1.5-.4.6-.8.6h-3c-.2 0-.4.1-.5.2-1.1 1.3-2.2 2.6-3.4 4 .1.1.2.3.3.4 1.4 1.7 2.8 3.3 4.3 5 .6.7.6 1.1 0 1.7h-.5l-.6-.6c-1.5-1.8-3-3.6-4.6-5.5-.2.3-.2.6-.4.7-1.6 1.8-3.1 3.6-4.7 5.4h-.5zm5.5-8.6c.8-.9 1.6-1.9 2.3-2.7h-4.6c.8 1 1.6 1.9 2.3 2.7z" fill="#FFF"/>
</svg>
