<svg xmlns="http://www.w3.org/2000/svg" viewBox="0 0 37.5 37.5">
    <path fill="#DE4B39" d="M32.5 37.5H5c-2.8 0-5-2.3-5-5V5c0-2.8 2.3-5 5-5h27.5c2.8 0 5 2.3 5 5v27.5c0 2.8-2.3 5-5 5z"/>
    <path fill="#FFF" d="M16.1 18.7c-1.7.1-3.1-.2-4.2-1.4-1.4-1.5-2-4.5.9-6.5 1-.6 2-1 3.2-1h6.3l-.9.9c-.1.1-.2.1-.3.1h-1.6c1 .5 1.3 1.4 1.5 2.3.4 1.7-.1 3.1-1.5 4.2-.3.3-.6.5-.9.8-.6.6-.6 1.2-.1 1.8.4.5.9.9 1.5 1.3.8.7 1.6 1.4 1.9 2.5.6 2.1-.1 3.9-2 5-1.5.9-3.1 1.1-4.8 1-1.1-.1-2.3-.3-3.3-.8-.4-.2-.9-.5-1.3-.8-1.1-.9-1.4-2.2-.8-3.5.6-1.2 1.6-2 2.8-2.5 1-.4 2-.6 3.1-.6h1.1c-.9-.8-1.2-1.7-.6-2.8zm-.2 10.1h.4c.9-.1 1.8-.2 2.6-.6 1.3-.7 1.9-2.6 1.2-3.8-.6-1-1.5-1.6-2.5-2-1.8-.6-3.5-.2-5 1-.5.4-.8.9-1 1.5-.3 1.1.2 2.3 1.3 3.1.9.6 1.9.8 3 .8zm3-13.9c0-.3-.1-.7-.1-1-.3-1.3-.9-2.5-2.1-3.2-1.4-.8-2.9-.3-3.5 1.2-.4.9-.3 1.9-.1 2.9.4 1.3 1.1 2.4 2.3 3 1.2.6 2.4.2 3-1 .4-.6.5-1.2.5-1.9zm6.5 1.6c0 .4 0 .8-.1 1.3h-2.9v2h3v3h2v-3h3v-2h-3v-3h-2v1.7z"/>
</svg>
