<svg xmlns="http://www.w3.org/2000/svg" xmlns:xlink="http://www.w3.org/1999/xlink" viewBox="0 0 25 33.1">
    <defs>
        <path id="a" d="M0 0h25v33.1H0z"/>
    </defs>
    <clipPath id="b">
        <use xlink:href="#a" overflow="visible"/>
    </clipPath>
    <path clip-path="url(#b)" fill="#6F6F6F" d="M19.1 4l-2.7 2.7c-.2.2-.2.4-.2.6.3.9.6 1.7.8 2.6.1.3.2.4.5.5 3.7 1.7 6.1 4.4 7 8.3 1 4-.2 7.6-3 10.6-2 2.1-4.6 3.4-7.5 3.8-4.3.5-7.9-.9-10.8-3.9C1.4 27.3.3 25 0 22.4c-.3-3.3.7-6.2 2.9-8.7 1.2-1.4 2.7-2.5 4.4-3.2.1-.1.3-.2.3-.4.3-1 .6-1.9 1-2.9.1-.2 0-.3-.1-.5L6 4.2c-.1-.2-.2-.3-.1-.5C6.6 2.6 7.3 1.4 8 .2c.2-.1.3-.2.6-.2h7.9c.2 0 .3 0 .4.2.7 1.2 1.5 2.5 2.2 3.8m-6.7 6.8c-6.2 0-10.8 4.6-10.8 10.4 0 5.8 4.8 10.3 10.9 10.2 6 0 10.8-4.6 10.7-10.4.1-5.7-4.7-10.2-10.8-10.2m3.8-6.1H8.8c1.3 1.3 2.5 2.4 3.7 3.7 1.2-1.3 2.4-2.5 3.7-3.7M8.3 3.1h8.4c-.3-.5-.6-1-.9-1.4 0-.1-.2-.1-.3-.1H9.4c-.1 0-.2 0-.3.1-.3.4-.5.9-.8 1.4m2.9 6.2c-.5-.4-.8-.7-1.2-1-.2.3-.3.8-.5 1.3.6-.1 1.1-.2 1.7-.3m3.7-.9c-.4.3-.7.6-1.1.9l1.5.3c-.1-.5-.2-.9-.4-1.2"/>
</svg>
