<svg xmlns="http://www.w3.org/2000/svg" viewBox="0 0 23.4 23.4" width="24" height="24">
    <g fill="#585858">
        <path d="M15.3 14h.2c1.9.5 3.7 1 5.6 1.4.5.1.8.4 1 .8.4.6.5 1.3.6 2.1.1.8.1 1.7.2 2.5 0 .2-.1.3-.2.4-1.1.5-2.3.8-3.5 1-3.1.6-6.1.7-9.2.6-2.1-.1-4.2-.2-6.3-.7-1-.2-2-.5-3-.9-.1 0-.2-.2-.2-.2 0-1.4.1-2.7.5-4 .1-.2.2-.5.3-.7.2-.4.6-.7 1-.8 1.9-.5 3.7-.9 5.6-1.4.1 0 .1 0 .3-.1.1.3.2.6.3 1l1.2 3.9c.1.4.4.7.6 1.1.2.2.4.3.7.3h1.4c.4 0 .7-.1.8-.4.3-.5.6-1.1.8-1.6.5-1.3.8-2.6 1.1-4 .1 0 .1-.1.2-.3zm-7.7 1h-.1l-4.8 1.2c-.4.1-.6.3-.8.7-.1.2-.1.3-.2.5-.3 1-.4 2-.4 3.1 0 .1.1.2.2.2.4.1.7.3 1.1.4 2.4.7 4.8.9 7.3 1 2.7.1 5.5 0 8.2-.4 1.3-.2 2.6-.5 3.8-.9.2-.1.2-.1.2-.3-.1-.6-.1-1.2-.2-1.7-.1-.6-.3-1.2-.5-1.8-.1-.3-.3-.5-.7-.6l-3.6-.9c-.4-.1-.9-.2-1.3-.3 0 .1 0 .1-.1.2-.3 1.2-.7 2.3-1 3.5-.2.7-.5 1.3-1 1.9-.4.4-.8.7-1.4.6h-1.4c-.7 0-1.2-.3-1.6-.8-.1-.2-.3-.4-.4-.7-.3-.7-.6-1.4-.8-2.2 0-1-.3-1.9-.5-2.7z"/>
        <path d="M11.9 23.4H10c-2.5-.1-4.5-.3-6.4-.7-.9-.2-2-.5-3.1-.9-.2-.2-.5-.4-.5-.8 0-1.3.1-2.7.5-4.2.1-.2.2-.5.3-.8.3-.5.7-.9 1.3-1 1.4-.3 2.7-.7 4.1-1l1.5-.4h.2l.5-.1.7 2.4c.3 1 .6 1.9.9 2.9.1.3.3.5.4.8l.1.2s.1.1.2.1h1.5c.3 0 .3-.1.4-.2.3-.5.6-1 .8-1.5.5-1.3.8-2.6 1.1-3.9l.2-.8.5.1.1.4.1-.5h.2l1.5.4c1.4.3 2.7.7 4.1 1 .6.1 1.1.5 1.4 1.1.3.6.6 1.4.7 2.2.1.5.1 1.1.1 1.7 0 .3 0 .6.1.9 0 .3-.1.7-.5.9-1 .4-2.1.8-3.6 1-2.4.5-4.8.7-7.5.7zm4.3-7.8l-.2.7c-.2.8-.5 1.6-.7 2.4-.3.8-.6 1.5-1.1 2-.3.4-.6.6-1 .7 1.8 0 3.4-.2 4.8-.4s2.6-.5 3.6-.8v-.5c0-.4 0-.7-.1-1.1-.1-.6-.3-1.2-.4-1.8 0-.1-.1-.2-.3-.3-.9-.2-1.8-.4-2.7-.7l-1.9-.2zM1.8 20.3l.9.3c2.1.6 4.3.9 7.2.9h.4c-.5-.2-.8-.5-1.2-.9-.2-.3-.3-.5-.4-.8-.3-.8-.6-1.5-.8-2.2-.2-.6-.3-1.1-.5-1.7l-.1-.3-1 .3c-1.2.3-2.3.6-3.5.9-.2.1-.3.1-.4.4-.1.2-.1.3-.2.4-.3.8-.4 1.8-.4 2.7z"/>
    </g>
    <g fill="#585858">
        <path d="M16.3 5.4c-.1 1.8-.5 3.6-1.2 5.3-.3.8-.9 1.4-1.4 2-1.1 1.1-2.7 1-3.7.3-.9-.6-1.5-1.3-2-2.3C7.1 8.9 6.7 7 6.7 5c0-.6.1-1.3.3-1.9.4-1.2 1.2-2 2.4-2.3 1.4-.4 2.8-.4 4.2.1 1.7.6 2.5 1.9 2.7 3.6v.9zM7.4 5c.1 2.2.6 3.9 1.4 5.5.4.7.9 1.3 1.5 1.7.8.6 2 .7 2.9-.3.4-.5.9-1 1.2-1.6.9-1.8 1.3-3.8 1.2-5.8-.1-1.4-1-2.6-2.4-3-1.1-.3-2.2-.3-3.3 0-1.2.3-1.9 1-2.2 2-.2.6-.2 1.2-.3 1.5z"/>
        <path d="M11.7 14c-.7 0-1.4-.2-2-.6-.9-.6-1.7-1.5-2.1-2.5C6.6 9 6.2 7 6.2 5c0-.7.1-1.4.4-2C7 1.6 8 .7 9.3.3c1.6-.5 3.1-.4 4.5.1 1.8.7 2.8 2 3 4v.9c-.1 1.9-.5 3.8-1.3 5.5-.3.7-.8 1.4-1.5 2.1-.6.8-1.5 1.1-2.3 1.1zM7.9 5.1c.1 2 .5 3.7 1.3 5.2.3.6.8 1.1 1.4 1.6.5.4 1.5.6 2.2-.2.4-.5.8-1 1.1-1.5.9-1.8 1.3-3.7 1.1-5.6-.1-1.2-.9-2.2-2-2.6-1-.3-2-.3-3 0-1 .2-1.6.8-1.8 1.7-.1.4-.2.8-.2 1.1 0 .1-.1.2-.1.3z"/>
    </g>
</svg>
