<svg xmlns="http://www.w3.org/2000/svg" viewBox="0 0 50 30.2">
    <path d="M12.8 26.9H9.6c-.9 0-1.2-.3-1.2-1.4v-24C8.5.3 8.7 0 9.8 0h23.8c.6.1.8.4.9 1v2.3h7.4c.6 0 .9.2 1.2.8 2.3 4.8 4.5 9.6 6.8 14.3.2.3.2.8.3 1.2v6c0 1-.3 1.3-1.1 1.3h-2.8c-.3 0-.5.1-.6.5-.6 1.8-1.9 2.8-3.4 2.8-1.6 0-2.9-1-3.5-2.8-.1-.4-.3-.5-.6-.5H20.8c-.3 0-.5 0-.6.4-.6 1.9-1.9 2.9-3.5 2.9s-2.9-1.1-3.5-3c-.3-.1-.3-.1-.4-.3zm-2.6-2h2.2c.4 0 .5-.1.6-.5.6-1.7 1.9-2.8 3.5-2.8 1.5 0 2.9 1.1 3.4 2.8.1.4.3.5.7.5H38c.3 0 .5 0 .6-.4.7-1.9 1.9-2.9 3.5-2.9s2.8 1 3.5 2.9c.1.1.2.3.3.4h2.4c0-.1.1-.2.1-.2 0-1.7.2-3.4-.1-5-.2-1.3-1-2.4-1.6-3.6 0-.1-.1-.1-.1-.2-.1-.4-.4-.5-.8-.5H33.9c-1 0-1.2-.3-1.2-1.4V2.1H10.3c-.1 7.6-.1 15.2-.1 22.8zm35.1-11.6c0-.1-.1-.2-.1-.3-1.1-2.4-2.3-4.8-3.5-7.2-.1-.2-.4-.4-.6-.4h-6.3c-.1 0-.3 0-.4.1v7.9c3.6-.1 7.2-.1 10.9-.1zM18.5 25.9c0-1.3-.9-2.4-2-2.3-1.1 0-2 1.1-2 2.3 0 1.3.9 2.3 2 2.3s2-1 2-2.3zm25.5 0c0-1.3-.9-2.3-2-2.3s-2 1-2 2.3c0 1.3.9 2.4 2 2.4 1.1-.1 2-1.1 2-2.4zM3.7 1.7h2.6c.7 0 1 .4 1 1s-.4 1-1 1H1c-.7 0-1-.4-1-1s.4-1 1-1h2.7zm.6 8.6H2.4c-.6 0-1-.4-1-1s.4-1 1-1h4c.6 0 1 .4 1 1s-.4 1-1 1H4.3zm.8 6.7H3.8c-.5 0-.9-.4-.9-1s.3-1 .9-1h2.8c.6 0 .9.4.9 1s-.3 1-.9 1H5.1zm.7 6.6H5c-.5-.1-.7-.4-.7-1 0-.5.3-.9.7-1 .5 0 1.1-.1 1.7 0 .5 0 .7.4.7 1 0 .5-.3.9-.7 1h-.9z" fill="#FFF"/>
</svg>
