<svg xmlns="http://www.w3.org/2000/svg" viewBox="0 0 80.9 80.7">
    <path fill="#D54233" d="M40.5 5L33.8.2C17.8 2 13.5 10.8 13.5 10.8l27 27.4V5z"/>
    <path fill="#6F6F6F" d="M64.8 15.2l-1.4-8.1C51.6-3 41.5.7 41.5.7l.2 37.8 23.1-23.3z"/>
    <path fill="#D54233" d="M74.5 39l5.4-6.7C79 15.8 68 13.3 68 13.3L42.8 39h31.7z"/>
    <path fill="#6F6F6F" d="M65.9 63.9l7.7-.4c10.5-11.9 6.6-23.1 6.6-23.1l-38-.1 23.7 23.6zM17.4 16.5l-9.3-.4C-2.2 27 .3 39 .3 39h39.6L17.4 16.5z"/>
    <path fill="#D54233" d="M7.4 40.3l-6.3 7.1c0 14.9 11 21 11 21l27.8-28.1H7.4z"/>
    <path fill="#6F6F6F" d="M17.9 64.6v8.1c9.2 11.1 22.7 7.4 22.7 7.4V41.4L17.9 64.6z"/>
    <path fill="#D54233" d="M41.6 73.8l6.3 5.4c14 .8 21-10.7 21-10.7L41.6 41.6v32.2z"/>
</svg>
