<svg xmlns="http://www.w3.org/2000/svg" viewBox="0 0 37.5 37.5">
    <path fill="#3488C9" d="M32.5 37.5H5c-2.8 0-5-2.3-5-5V5c0-2.8 2.3-5 5-5h27.5c2.8 0 5 2.3 5 5v27.5c0 2.8-2.3 5-5 5z"/>
    <path fill="#FFF" d="M23.5 24.2c-2.8 2.7-6.8 2.3-9.2-.3-2.3-2.6-2.3-6.1.1-8.7 2.3-2.5 6.2-3 9.1-.2v-.1c.2-.7.5-.9 1.2-.9.5.1.8.5.8 1.1V24c0 .3.1.5.4.6.3.1.5 0 .7-.2.5-.6.8-1.2 1-1.9.6-1.8.7-3.7.2-5.6-.6-2.2-2-3.7-3.9-4.7-2.8-1.5-5.8-1.6-8.7-.3-2.5 1.1-3.9 3.3-4.5 5.9-.6 2.9.1 5.4 2.2 7.5 1.5 1.5 3.3 2.3 5.4 2.5 1.3.1 2.5 0 3.7-.5.6-.2 1.2-.1 1.4.4.3.5.2 1.2-.3 1.6-.4.3-.9.5-1.4.6-4.4.8-8.3-.2-11.4-3.6-1.5-1.6-2.2-3.6-2.4-5.8-.2-2.2.2-4.3 1.2-6.2C10.6 11.5 13 9.8 16 9c4.3-1.1 8.2-.1 11.4 3 1.5 1.5 2.3 3.4 2.7 5.4.4 2.3.2 4.5-.7 6.6-.5 1-1.1 1.9-2 2.6-.8.6-1.7.8-2.6.4-.9-.3-1.5-1-1.7-2 .4-.1.5-.4.4-.8zM15 19.7c.1 2.9 2.3 4.7 5.1 4.2 2.3-.5 3.7-2.8 3.2-5.2-.5-2.1-2.3-3.5-4.5-3.3-1.7.1-2.8 1-3.4 2.6-.3.5-.3 1.1-.4 1.7z"/>
</svg>
