<svg xmlns="http://www.w3.org/2000/svg" viewBox="-291.9 415.9 9.7 11" width="10" height="11">
    <path fill="#B0B0B0" d="M-288.6 422.1c0 .2.2.3.3.3.3.1.5.2.8.2.5.1 1 0 1.5-.1.1 0 .1 0 .2-.1.2-.1.3-.2.3-.3.4.3.8.5 1.3.6.3.1.6.1.9.2.6.1.9.5 1 1.1.1.5.1 1 .1 1.5 0 .2-.1.4-.3.5-.2.2-.5.3-.8.4-.6.2-1.2.3-1.9.4-.8.1-1.6.1-2.4.1-1.1 0-2.2-.1-3.2-.5-.3-.1-.6-.2-.8-.4-.2-.2-.3-.4-.3-.7 0-.5 0-1 .2-1.5.1-.5.4-.8.9-.9.3 0 .6-.1.9-.2.4-.1.9-.3 1.3-.6m.7-6c-.2 0-.4.2-.6.3-.3.1-.5.4-.7.8-.1.3-.2.7-.2 1.2 0 .1 0 .2-.1.2 0 0-.1.1-.1.2-.1.4 0 .8.2 1.1l.1.1.1.1c.2.5.5 1 1 1.4.3.3.6.4 1 .5.5.1.9-.1 1.2-.4.5-.4.8-.9 1.1-1.5 0 0 0-.1.1-.1 0-.1.1-.2.2-.3.1-.3.2-.6.1-.9 0-.1-.1-.2-.1-.3v-.1c0-.2 0-.4-.1-.6-.1-.6-.3-1.1-.9-1.5-.4-.2-.9-.4-1.4-.4-.3 0-.6 0-.9.2"/>
</svg>
