<svg xmlns="http://www.w3.org/2000/svg" viewBox="0 0 86.3 63.3" width="35" height="26">
    <g fill="#D54233">
        <path d="M59.8 9.5c-2.9-1-5.9-2-8.8-2.9-1.9-.6-3.9-1.3-5.8-1.9-.1 0-.2-.1-.3-.1-1.3-.5-2.1-1.9-1.7-3C43.6.5 45-.1 46.4.3 49.9 1.5 53.5 2.7 57 4c5.3 1.9 10.7 3.7 16 5.6.5.2 1 .2 1.5.2h6.4c2.9 0 5.1 1.8 5.4 4.4.1.6 0 1.1 0 1.7v41.6c0 1.1-.2 2.3-.7 3.3-.8 1.7-2.4 2.6-4.3 2.6H5.8c-1.4 0-2.6-.2-3.7-1.1C.6 61.1 0 59.5 0 57.7V15.4c0-2.8 1.4-4.9 3.8-5.5.7-.2 1.5-.2 2.2-.2h53.8v-.2zM43.3 59.2h38c.6-.1 1.2-.2.7-1.1-.1-.2 0-.6 0-.8V15.6c0-1.5-.2-1.6-1.6-1.6H6.2c-2.1 0-1.8 0-1.8 1.8v41.8c0 1.5.1 1.7 1.7 1.7 12.4-.1 24.8-.1 37.2-.1z"/>
        <path d="M30.5 39.4H12.6c-1.9 0-2.9-1.4-2.3-3.1.3-.9 1-1.4 1.9-1.5h36.3c1.5 0 2.4.9 2.5 2.3 0 1.3-.9 2.2-2.1 2.3H30.5zm29-12c0-4.5 3.6-8.1 8.2-8.1 4.5 0 8.1 3.6 8.1 8.2 0 4.5-3.7 8.1-8.3 8.1-4.4-.1-8-3.7-8-8.2zm8.1-4.1c-2.1 0-3.8 1.8-3.8 3.8 0 2 1.8 3.8 3.9 3.8 2.1 0 3.8-1.7 3.8-3.8 0-2-1.8-3.8-3.9-3.8zm-37 18.1h14.6c1.9 0 2.9 1.9 2 3.5-.5.9-1.4 1.1-2.3 1.1H15.4c-1.2-.2-1.9-.9-2-2.1-.1-1.2.6-2.2 1.7-2.4.4-.1.8-.1 1.2-.1h14.3zm-.1-9H16c-1.6 0-2.6-1-2.5-2.4 0-1 .6-1.8 1.5-2.1.3-.1.7-.2 1-.2h29.1c1.6 0 2.5.9 2.4 2.3 0 1.4-1 2.3-2.4 2.3-4.9.1-9.8.1-14.6.1zm.1 15.8h9.5c1.9 0 2.4 1.1 2.5 2.3 0 1.4-1 2.4-2.5 2.4H20.9c-1.6 0-2.5-.8-2.5-2.3 0-1.4 1-2.3 2.5-2.3 3.2-.1 6.5-.1 9.7-.1zm-.1-22.8h-9.6c-1 0-1.9-.3-2.3-1.3-.7-1.4.1-2.9 1.6-3.3.3-.1.6-.1.8-.1h19c1.5 0 2.3.6 2.5 1.7.3 1.7-.6 2.9-2.3 2.9-3.3.1-6.5.1-9.7.1z"/>
    </g>
</svg>
