<svg xmlns="http://www.w3.org/2000/svg" viewBox="0 0 66.4 66" width="27">
    <path d="M66.4 42.2c-.3.9-.8 1.6-1.5 2.2L44.5 64.8c-1.6 1.6-3.3 1.6-5 0-6.8-6.9-13.7-13.8-20.6-20.7-1.6-1.6-1.6-3.3 0-4.9l20.7-20.7c1.6-1.6 3.3-1.6 4.9 0 6.8 6.8 13.6 13.6 20.4 20.3.7.6 1.2 1.3 1.5 2.2v1.2zM30.3 45c1.9 0 3.4-1.5 3.4-3.4s-1.6-3.5-3.4-3.5c-1.9 0-3.4 1.5-3.4 3.4-.1 2 1.4 3.5 3.4 3.5zm8.3 8.4c0 1.9 1.5 3.4 3.5 3.4 1.9 0 3.4-1.6 3.4-3.4 0-1.9-1.6-3.4-3.4-3.4-1.9 0-3.5 1.5-3.5 3.4zm0-23.6c0 1.9 1.5 3.4 3.4 3.4s3.5-1.5 3.5-3.4-1.5-3.4-3.4-3.5c-1.9.1-3.5 1.6-3.5 3.5zM42 45c1.9 0 3.5-1.5 3.5-3.4s-1.5-3.4-3.4-3.4-3.5 1.5-3.5 3.4S40.1 45 42 45zm8.4-3.4c0 1.9 1.5 3.4 3.4 3.4s3.5-1.5 3.5-3.4-1.6-3.5-3.5-3.5c-1.9.1-3.4 1.6-3.4 3.5zM0 2.5C.3 1.7.6.9 1.4.5 1.9.3 2.6 0 3.2 0h29.9c1.8 0 3.1 1.3 3.1 3.1V15c0 .2-.1.5-.3.7-2.7 2.8-5.5 5.5-8.2 8.2-.1.1-.4.2-.6.2-1.5-.5-2.8-.3-3.9.8s-1.2 2.5-.6 3.9v.2l-4.5 4.5-2.4 2.4c-.3.3-.6.4-1 .4-3.7 0-7.3-.1-11 0-1.9 0-3.2-.7-3.8-2.5C0 23.3 0 12.9 0 2.5zm22.3 15.6c0 1.9 1.5 3.5 3.4 3.5s3.4-1.6 3.4-3.4c0-1.9-1.5-3.5-3.5-3.4-1.8-.1-3.3 1.4-3.3 3.3zM7.1 9c0 1.9 1.5 3.4 3.4 3.4S14 10.8 14 8.9s-1.6-3.4-3.5-3.4C8.6 5.6 7.1 7.1 7.1 9zm18.6-3.4c-1.9 0-3.4 1.5-3.4 3.4s1.5 3.5 3.4 3.5 3.4-1.5 3.4-3.4c.1-1.9-1.5-3.5-3.4-3.5zM7.1 18.1c0 1.9 1.5 3.4 3.4 3.4s3.5-1.6 3.5-3.4c0-1.9-1.6-3.4-3.5-3.4s-3.4 1.5-3.4 3.4zm3.4 5.7c-1.9 0-3.4 1.5-3.4 3.4s1.5 3.5 3.4 3.4c1.9 0 3.4-1.6 3.4-3.4.1-1.9-1.5-3.4-3.4-3.4z" fill="#D54233"/>
</svg>
