<svg xmlns="http://www.w3.org/2000/svg" viewBox="0 0 233.1 232.6">
    <path fill="none" stroke="#FFF" stroke-miterlimit="10" d="M116.7 110L39.2 31.4S51.6 6.3 97.5.9l19.2 13.9V110zm69.7-65.9l-4.1-23.3c-33.7-29-62.8-18.4-62.8-18.4l.5 108.4 66.4-66.7zm27.9 68.4l15.4-19.1c-2.6-47.5-34.1-54.6-34.1-54.6l-72.4 73.7h91.1zm-24.7 71.2l22-1.2c30.2-34.2 18.9-66.2 18.9-66.2l-108.9-.2 68 67.6zM50.4 47.8l-26.8-1C-5.9 78 1.3 112.5 1.3 112.5H115L50.4 47.8zm-28.6 68.4l-18 20.2c-.1 42.8 31.6 60.3 31.6 60.3l79.6-80.5H21.8zm29.9 69.6v23.3c26.3 31.9 65.1 21.3 65.1 21.3V119.1l-65.1 66.7zm68.3 26.5l18 15.6c40.2 2.4 60.3-30.8 60.3-30.8l-78.5-77.2.2 92.4z"/>
</svg>
