<svg xmlns="http://www.w3.org/2000/svg" viewBox="0 0 68.4 67.5">
    <path fill="#D54233" stroke="#D54233" stroke-width=".75" stroke-miterlimit="10" d="M45.8 39.2c.9.5 1.8.9 2.7 1.3 1.9.8 3.4 1.9 4.8 3.4 4.3 4.3 8.6 8.5 12.9 12.8 1.7 1.7 2.2 3.8 1.6 6.1-.7 2.3-2.3 3.7-4.7 4.2-2 .4-3.9-.1-5.4-1.5-5-4.9-10-9.8-14.9-14.7-.3-.3-.5-.8-.7-1.2-.7-1.4-1.5-2.9-2.2-4.4-6.7 4.4-13.9 5.6-21.6 3.4-5.9-1.7-10.4-5.2-13.8-10.1-6.6-9.7-5-22.9 3.6-31.2C16.6-.9 30-1.9 39.7 4.8 45.2 8.7 48.8 14 50 20.7c1.2 6.6-.3 12.8-4.2 18.5zM47.5 25c.2-11.7-9.8-22.2-22.9-21.8-11.7.3-21.6 10-21.4 22.3.3 11.9 10.4 21.6 22.8 21.3 11.9-.3 21.6-10.1 21.5-21.8zm17.6 36c0-1-.4-1.8-1.1-2.5-3.8-3.8-7.7-7.5-11.4-11.3-2-2.1-4.3-3.8-7-4.9-1.7-.7-1.7-.8-3 .5-.3.3-.3.5-.1.9.7 1.4 1.4 2.8 2.1 4.1.3.5.6 1 1.1 1.5 2.6 2.6 5.2 5.1 7.7 7.6 2.1 2.1 4.2 4.1 6.3 6.2 1 1 2.3 1.2 3.5.7 1.2-.5 1.8-1.5 1.9-2.8z"/>
</svg>
