<svg xmlns="http://www.w3.org/2000/svg" viewBox="0 0 48.5 63.1">
    <g fill="#FFF" stroke="#FFF" stroke-width=".5" stroke-miterlimit="10">
        <path d="M48.2 20.5c-.1 7.5-1 14.8-3.6 21.8C42 49.6 37.7 55.7 31 59.8c-1.9 1.2-4.1 2-6.2 3-.4.2-1 .1-1.4 0-8.9-3.3-15-9.5-18.8-18.1C2.3 39.6 1.1 34.2.5 28.6.1 22.8.1 17 .8 11.3c.1-.6.3-.8.8-1.1C9 7 16.3 3.6 23.7.3c.3-.1.8-.1 1.1 0C32 3.5 39.2 6.8 46.4 10c.9.4 1.2.9 1.3 1.8.2 3 .4 5.8.5 8.7zm-1.3-.4c-.2-2.6-.4-5.2-.5-7.8 0-.6-.3-.9-.9-1.2C38.6 8 31.7 4.9 24.7 1.8c-.3-.1-.8-.2-1.2 0-7 3.1-13.9 6.2-20.9 9.3-.4.3-.6.6-.6 1.2-.6 5.8-.6 11.6.2 17.4.7 5.8 2.1 11.4 4.8 16.6 3.7 7.1 9.2 12.2 16.7 15 .3.1.7.1 1 0 3.2-1.1 6.1-2.7 8.7-4.9 5.2-4.2 8.4-9.8 10.5-16.1 2.1-6.4 2.9-13.2 3-20.2z"/>
        <path d="M24.2 19.1h18.2c1.2 0 1.2.1 1.3 1.3.1 6.6-.5 13.1-2.7 19.4-2.3 6.9-6.2 12.6-12.5 16.4-1.1.7-2.3 1.2-3.5 1.7-.4.2-1.1.2-1.5 0-6.6-2.7-11.2-7.5-14.3-13.9-2.2-4.4-3.5-9.1-3.9-14-.3-3.2-.4-6.5-.5-9.7 0-1.1.1-1.2 1.2-1.2h18.2zm18.2 1.3H6.1c0 .1-.1.2-.1.2-.1 7 .6 13.9 3.2 20.4 2.6 6.6 6.8 11.8 13.2 15 1.2.6 2.2.6 3.4 0 6.5-3.3 10.7-8.7 13.3-15.4 1.7-4.4 2.5-8.9 2.9-13.5.3-2.1.3-4.4.4-6.7z"/>
        <path d="M22.6 44.2c.2-.3.4-.5.6-.7 4.5-5.8 8.9-11.5 13.4-17.3.1-.1.2-.3.3-.3.3-.1.8-.4 1-.3.5.3.3.7 0 1.1-1.6 2.1-3.2 4.2-4.9 6.2-3.2 4.1-6.3 8.1-9.5 12.2-.8 1-1 1-1.8 0-2.6-3.4-5.2-6.7-7.8-10.1-.1-.1-.2-.3-.3-.4-.3-.4-.7-.8-.1-1.2.5-.4.8.1 1.1.4.5.6 1 1.3 1.5 1.9 2 2.6 4.1 5.2 6.1 7.9.1.2.2.4.4.6z"/>
    </g>
</svg>
