<svg xmlns="http://www.w3.org/2000/svg" viewBox="0 0 37.5 37.5">
    <path fill="#2EADE4" d="M32.5 37.5H5c-2.8 0-5-2.3-5-5V5c0-2.8 2.3-5 5-5h27.5c2.8 0 5 2.3 5 5v27.5c0 2.8-2.3 5-5 5z"/>
    <path fill="#FFF" d="M8.5 26.8c2.6.2 4.9-.5 7-2-2.2-.2-3.7-1.3-4.5-3.4h2.1v-.1c-2.4-.7-3.6-2.3-3.8-4.7l2.1.6s0-.1.1-.1c-2.1-1.8-2.6-3.9-1.4-6.5 2.6 3.1 5.9 4.8 9.9 5.1 0-.6-.1-1.2 0-1.8.3-1.9 1.4-3.2 3.2-3.9 1.8-.6 3.5-.2 4.9 1 .2.1.3.2.5.1 1-.2 1.8-.6 2.7-1-.3 1.1-1 1.9-1.9 2.5.9-.1 1.7-.3 2.6-.7-.6.9-1.2 1.6-2 2.2-.3.2-.4.4-.4.8-.1 5.1-2.2 9.1-6.5 11.9-1.8 1.2-3.9 1.8-6.1 2-2.9.2-5.6-.4-8.2-1.9-.1 0-.2-.1-.3-.1z"/>
</svg>
