<svg xmlns="http://www.w3.org/2000/svg" viewBox="-304.4 408.6 47.6 25.5" width="17" height="9">
    <path fill="#9B9B9B" d="M-304.4 421.4l.3-.3c4-4 8.5-7.4 13.6-9.9 2.8-1.4 6-2.6 9.4-2.6 2.8 0 5.7.6 8.2 1.7 4.3 1.7 8.2 4 11.6 7.1 1.4 1.1 2.8 2.6 4.3 3.7 0 0 .3 0 .3.3v.3l-.3.3c-4 4-8.2 7.4-13.3 9.6-3.1 1.4-6.5 2.6-9.9 2.6-2.3 0-4.8-.3-7.1-1.1-4.3-1.7-7.9-4-11.6-6.8-1.7-1.4-3.4-3.1-5.1-4.5-.1-.1-.4-.1-.4-.4zm14.7-.3c0 5.1 4 9.1 9.1 9.1s9.1-4 9.1-9.1-4-9.1-9.1-9.1c-5.1.3-9.1 4.3-9.1 9.1"/>
    <path fill="#9B9B9B" d="M-276.1 421.4c0 2.3-2.3 4.3-4.5 4.3-2.6 0-4.5-2-4.5-4.3 0-2.6 2-4.5 4.5-4.5 2.6 0 4.5 1.9 4.5 4.5"/>
</svg>
