<svg xmlns="http://www.w3.org/2000/svg" viewBox="0 0 37.5 37.5">
    <path fill="#4F7299" d="M32.5 37.5H5c-2.8 0-5-2.3-5-5V5c0-2.8 2.3-5 5-5h27.5c2.8 0 5 2.3 5 5v27.5c0 2.8-2.3 5-5 5z"/>
    <path fill="#FFF" d="M13.7 14.3c.1-.3.4-.5.7-.6.4-.1.7-.2 1.1-.2 1.1 0 2.2 0 3.2.1.8.1 1 .4 1 1.1v4.2c.1.3.2.6.5.7.3.1.5-.1.8-.3.8-.7 1.3-1.5 1.8-2.4.4-.7.8-1.5 1.2-2.2.2-.5.4-.6.9-.6h3.7c.2 0 .4 0 .7.1.4.1.5.3.4.6-.1.3-.2.7-.4 1-.8 1.1-1.6 2.1-2.4 3.1-.3.4-.6.7-.9 1.1-.3.5-.3.8.1 1.2.3.3.6.5.9.8.7.7 1.5 1.4 2.2 2.1.2.2.4.5.5.8.2.4 0 .7-.4.8-.2.1-.5.2-.7.2-1.1 0-2.2 0-3.3.1-.6 0-1.2-.2-1.6-.6-.5-.4-.9-.8-1.4-1.3-.3-.3-.6-.6-1-.9-.5-.4-1-.3-1.2.3-.2.4-.3.9-.3 1.4-.1.8-.3 1-1.1 1-1.1 0-2.3 0-3.4-.3-2-.6-3.5-1.7-4.7-3.2-1.8-2.1-3.2-4.5-4.5-7-.1-.3-.3-.5-.4-.8-.1-.3 0-.5.4-.6.2 0 .3 0 .5-.1h3.1c.5 0 .9.2 1.1.7.6 1.4 1.4 2.8 2.4 4 .2.3.5.6.8.8.4.3.8.2.9-.3.1-.4.2-.8.2-1.3 0-.8 0-1.6-.1-2.4-.1-.7-.4-1-1.2-1.2.1.1 0 .1-.1.1z"/>
</svg>
