<svg xmlns="http://www.w3.org/2000/svg" viewBox="0 0 20.3 17">
    <path fill="#FCF7C9" d="M10.1 17H.4c-.1 0-.3 0-.4-.2-.1-.2 0-.3.1-.4 1.9-3.2 3.8-6.3 5.7-9.5C7.1 4.7 8.4 2.5 9.7.4c0-.1.1-.1.1-.2.2-.2.4-.2.6 0 .3.4.5.8.7 1.2l9 15s0 .1.1.1c.2.3.1.5-.3.5h-9.8zM10.2.9C7.1 6.1 4 11.2.9 16.4h18.6C16.4 11.2 13.3 6.1 10.2.9z"/>
    <path fill="#FCF7C9" d="M10.2 5.9h.9c.2 0 .3.1.2.2 0 .9-.1 1.9-.1 2.8 0 .7-.1 1.4-.2 2.2v.1c0 .3 0 .3-.4.3h-1c-.2 0-.3-.1-.3-.3 0-.5-.1-1-.1-1.5C9.1 8.6 9 7.4 9 6.2c0-.3 0-.3.3-.3h.9zm.8.3H9.3c0 1.7.2 3.4.3 5.1h1.1c.1-1.8.4-3.4.3-5.1zm-2 7.4c0-.6.5-1.1 1.1-1.1.6 0 1.1.5 1.1 1.1 0 .6-.5 1.1-1.1 1.1-.6 0-1.1-.5-1.1-1.1zm1.1-.9c-.4 0-.8.4-.8.8 0 .5.4.8.8.9.5 0 .8-.4.8-.8.1-.5-.3-.9-.8-.9z"/>
</svg>
