<svg xmlns="http://www.w3.org/2000/svg" viewBox="0 0 37.5 37.5">
    <path fill="#FFCC07" d="M32.5 37.5H5c-2.8 0-5-2.3-5-5V5c0-2.8 2.3-5 5-5h27.5c2.8 0 5 2.3 5 5v27.5c0 2.8-2.3 5-5 5z"/>
    <path fill="#FFF" d="M23.6 8.5v20.7c-.6 0-1.3.1-2 .1v-7.8h-1.5c-.1 0-.2.2-.3.3-1.2 2.3-2.4 4.7-3.6 7-.1.3-.3.4-.6.3h-2.1c.1-.1.1-.2.1-.3 1.2-2.4 2.5-4.8 3.7-7.2.3-.6.3-.6-.3-.9-.9-.5-1.6-1.2-2-2.2-.5-1.1-.7-2.3-.6-3.4.1-1.8.6-3.4 1.6-4.8.9-1.2 2-1.9 3.6-1.8h4zM21.7 10h-.8c-1-.1-1.7.3-2.4 1-1.8 1.8-2.1 5.1-.7 7.2.8 1.2 2.5 1.9 3.9 1.5V10z"/>
</svg>
